<?xml version="1.0" encoding="utf-8"?>
<!-- Generator: Adobe Illustrator 22.0.1, SVG Export Plug-In . SVG Version: 6.00 Build 0)  -->
<svg version="1.1" id="레이어_1" xmlns="http://www.w3.org/2000/svg" xmlns:xlink="http://www.w3.org/1999/xlink" x="0px"
	 y="0px" viewBox="0 0 399.6 55" style="enable-background:new 0 0 399.6 55;" xml:space="preserve">
<style type="text/css">
	.st0{enable-background:new    ;}
	.st1{fill:#8A6161;}
</style>
<title>GM_tabtitle</title>
<g class="st0">
	<path class="st1" d="M32.3,34c-1.1,1.3-3.2,2.7-6.4,4.3c-0.7,4.3-2.1,7.7-4.3,10c-2.2,2.4-4.7,3.6-7.5,3.6c-1.3,0-2.4-0.3-3.1-0.9
		c-0.8-0.6-1.2-1.5-1.2-2.5c0-3,2.9-6,8.8-8.8c0.6-2.2,1.2-4.2,1.8-5.9c-1,1.5-2.5,2.8-4.5,3.9c-2,1.1-3.8,1.7-5.4,1.7
		c-2.7,0-5-1.2-6.8-3.6c-1.8-2.4-2.7-5.4-2.7-9c0-3.8,1-7.5,3.1-10.9s4.7-6.2,8.1-8.2c3.3-2.1,6.6-3.1,9.7-3.1
		c2.8,0,5.1,0.8,6.8,2.4s2.6,3.7,2.6,6.2c0,2.7-1,5.1-3,7.2s-4.2,3.1-6.8,3.1c-1.5,0-2.7-0.4-3.7-1.1s-1.5-1.6-1.5-2.7
		c0-0.7,0.2-1.2,0.6-1.7s0.8-0.8,1.3-0.8s0.7,0.3,0.7,0.9c0,0.5,0.2,0.9,0.6,1.2c0.4,0.3,0.8,0.4,1.3,0.4c1.3,0,2.6-0.9,3.7-2.7
		c1.2-1.8,1.8-3.7,1.8-5.7c0-1.4-0.5-2.6-1.4-3.5c-0.9-0.9-2.1-1.4-3.6-1.4c-2.2,0-4.3,1-6.4,2.9c-2.1,2-3.7,4.5-5,7.7
		S8,23.2,8,26.1c0,2.6,0.6,4.7,1.7,6.3c1.1,1.6,2.7,2.3,4.5,2.3c3.2,0,6.2-2.3,9.1-6.8l4.6-0.7c0.6-0.1,0.9,0.1,0.9,0.4
		c0,0.2-0.2,0.9-0.7,2.1c-0.4,1.2-1,3.3-1.8,6.2c2.5-1.5,4.5-3.1,5.9-4.9L32.3,34L32.3,34z M18.1,42.1c-4.2,2.1-6.3,4.2-6.3,6.3
		c0,1.1,0.5,1.6,1.6,1.6C15.4,50,17,47.4,18.1,42.1z"/>
	<path class="st1" d="M50.5,34c-4.1,4-7.2,6-9.4,6c-1,0-1.8-0.4-2.5-1.3c-0.7-0.8-1-1.9-1-3.1c0-2.3,1.2-5.4,3.7-9.2
		c-1.2,0.6-2.5,1-4,1.3c-1.1,2-2.7,4.1-5,6.3h-0.6v-2.2c1.3-1.3,2.4-2.7,3.4-4.2C33.7,27,33,26.1,33,24.8s0.4-2.6,1.3-4
		c0.9-1.4,2-2.1,3.5-2.1c1.3,0,1.9,0.7,1.9,2c0,1-0.4,2.5-1.1,4.4c2.7-0.3,5.1-2.4,7.1-6.2l2.2-0.1l-2.3,6.3
		c-0.9,2.6-1.6,4.4-1.8,5.4c-0.3,1-0.4,1.8-0.4,2.5s0.2,1.2,0.5,1.6c0.3,0.4,0.7,0.6,1.3,0.6s1.1-0.2,1.7-0.6
		c0.5-0.4,1.7-1.5,3.6-3.3V34z"/>
	<path class="st1" d="M72.5,34c-0.8,0.7-1.6,1.2-2.4,1.5S68.7,36,68.2,36c-1.2,0-2.3-0.5-3.5-1.4c-2.3,3.5-5,5.3-8.1,5.3
		c-1.9,0-3.4-0.7-4.6-2.1s-1.8-3.3-1.8-5.6c0-3.7,1.3-6.9,4-9.6c2.6-2.7,5.8-4,9.4-4c1.4,0,2.4,0.2,3,0.5s1,0.7,1.2,1.1
		c0.1,0.4,0.2,0.9,0.2,1.5c0,3-0.8,6.8-2.5,11.2c0.8,0.8,1.7,1.1,2.6,1.1c1.1,0,2.5-1,4.2-2.9V34H72.5z M64.4,20.4
		c-0.2-0.1-0.6-0.1-1-0.1c-2.1,0-3.8,1.1-5,3.3s-1.8,4.8-1.8,7.8c0,1.6,0.3,2.9,0.8,3.8c0.5,0.9,1.2,1.4,2.2,1.4
		c1.2,0,2.4-1.1,3.8-3.2c-1.5-1.9-2.3-4-2.3-6.2C61,24.5,62.1,22.2,64.4,20.4z"/>
	<path class="st1" d="M98.5,34c-2.1,2-3.9,3.5-5.4,4.5c-1.4,1-2.8,1.5-3.9,1.5c-1.3,0-2.3-0.5-3-1.5s-1-2.4-1-4.2
		c-1.8,2-3.4,3.4-4.8,4.4c-1.4,0.9-2.8,1.4-4.2,1.4c-1.2,0-2.2-0.5-3-1.5c-0.7-1-1.1-2.4-1.1-4.2c0-3.4,1.1-8.2,3.4-14.3l6.5-1.3
		c-2.7,7.8-4,12.8-4,15c0,1.6,0.6,2.3,1.8,2.3c0.8,0,1.9-0.7,3.1-2.1c1.3-1.4,2-2.6,2.3-3.6L88.4,20l6.6-1.3
		c-1.5,4.9-2.6,8.3-3.2,10.3s-0.9,3.4-0.9,4.2c0,1.5,0.5,2.3,1.6,2.3c0.8,0,2.1-0.8,3.8-2.3l2.1-1.9L98.5,34L98.5,34z"/>
	<path class="st1" d="M110.2,22.8c1.2-1.4,2.3-2.5,3.3-3.1c1-0.7,2.2-1,3.5-1c1.6,0,3,0.6,4,1.9s1.5,2.9,1.5,5
		c0,3.6-1.2,6.9-3.7,9.9s-5.2,4.5-8.1,4.5c-0.8,0-1.5-0.1-1.9-0.3c-0.5-0.2-1.1-0.6-1.9-1.2c-1.2,5.2-1.9,9.3-2.3,12.4L98.4,52
		c1.2-7.6,2.6-15.3,4.4-23.1c-2.1,2.8-3.6,4.5-4.3,5.2h-0.6v-2.2c3.1-3.3,5.6-7.4,7.6-12.2l5.5-1L110.2,22.8z M107.3,35.9
		c0.8,1.4,1.8,2.1,2.8,2.1c1.6,0,3.1-1.2,4.4-3.7s1.9-4.9,1.9-7.3c0-1.3-0.3-2.3-0.8-3c-0.5-0.8-1.2-1.2-2-1.2c-0.6,0-1.3,0.3-2,0.9
		s-1.2,1.2-1.6,2s-0.8,2.1-1.2,4L107.3,35.9z"/>
	<path class="st1" d="M189.2,34c-3.6,3.9-7,5.9-10,5.9c-1.8,0-3.2-0.9-4.2-2.6c-1-1.8-1.4-4.1-1.4-7.1c0-2.3,0.5-5.4,1.4-9.4
		s2.1-7.3,3.6-10.1l1.4-2.5c-1.9,2-3.5,4.2-4.8,6.6c-1.2,2.4-2.7,5.8-4.4,10.1s-3,7.3-3.9,8.8s-1.7,2.8-2.5,3.8s-1.5,1.6-2.1,1.9
		c-0.6,0.3-1.7,0.4-3.3,0.4c-0.6,0-0.9-0.2-0.9-0.5c0,0,0.1-0.5,0.3-1.5s0.4-2.6,0.7-4.8c0.2-2.2,0.4-5.9,0.5-11.2
		c0.1-5.2,0.9-9.7,2.3-13.5c-1.5,1.7-3.1,5.8-4.7,12.2l-0.6,2.4c-1.7,6.6-3.6,11.1-5.8,13.4s-4.3,3.5-6.4,3.5
		c-1.3,0-2.4-0.4-3.4-1.2s-1.5-1.7-1.5-2.8c0-0.8,0.6-1.7,1.8-2.7s1.9-1.5,2.2-1.5c0.4,0,0.6,0.1,0.7,0.4s0.3,0.9,0.4,2
		c0.2,1.1,0.5,1.8,0.8,2.1c0.4,0.3,0.8,0.5,1.4,0.5c1.3,0,2.6-1.3,4.2-3.8c1.5-2.5,2.9-6.4,4.2-11.7l0.7-3c0.6-2.4,1.1-4.3,1.7-5.8
		c0.6-1.4,1.3-2.9,2.2-4.3c1.3-2.1,2.1-3.1,2.4-3.3c0.3-0.1,0.9-0.3,1.7-0.3c0.8-0.1,1.7-0.1,2.5-0.1c0.3,0,0.5,0.2,0.5,0.6
		c0,0.2-0.1,0.5-0.2,1.1c-0.3,2.3-0.5,4.6-0.5,6.9v6.5c0,5.7-0.4,10.3-1.4,13.8c0.9-1,2.1-3.7,3.8-8.1c2.4-6.1,4.5-10.7,6.5-13.8
		c0.9-1.5,2-2.9,3.4-4.3c1.3-1.4,2.2-2.1,2.7-2.2c1.7-0.3,3.2-0.5,4.4-0.5c0.4,0,0.7,0.1,0.7,0.4S186,5.8,185.5,7
		c-1.3,2.9-2.4,6.7-3.5,11.6s-1.6,8.8-1.7,11.7c0,3.3,1,4.9,3,4.9c1.6,0,3.6-1.4,5.8-4.2v3H189.2z"/>
	<path class="st1" d="M215.2,34c-2.6,2.5-4.5,4.1-5.6,4.8s-2.2,1.1-3.2,1.1c-2.6,0-3.8-2.3-3.6-6.8c-1.6,2.3-3.1,4-4.5,5.2
		c-1.4,1.1-2.8,1.7-4.3,1.7c-1.4,0-2.6-0.7-3.6-2s-1.5-3-1.5-4.9c0-2.4,0.7-4.8,2-7s3.1-4,5.2-5.4s4-2.1,5.6-2.1
		c2,0,3.5,0.9,4.3,2.8l5-2.8h1.4l-2.2,7.2c-1.1,3.6-1.7,6.1-1.7,7.4c0,1.4,0.5,2.1,1.5,2.1c0.6,0,1.3-0.3,2.1-1s1.8-1.7,3.2-3.1
		L215.2,34L215.2,34z M197.3,35.3c1.6,0,3.2-1.4,4.6-4.2c1.4-2.8,2.2-5.3,2.2-7.7c0-0.9-0.2-1.6-0.6-2.1c-0.4-0.5-1-0.8-1.6-0.8
		c-1.6,0-3.2,1.4-4.6,4.2c-1.5,2.8-2.2,5.3-2.2,7.6c0,0.9,0.2,1.6,0.6,2.1C196.1,35.1,196.7,35.3,197.3,35.3z"/>
	<path class="st1" d="M239.2,34c-3.8,4-7,6-9.7,6c-1.1,0-2-0.4-2.6-1.1c-0.7-0.8-1-1.8-1-3.1c0-1.7,0.7-4.4,2.1-8
		c0.8-1.9,1.1-3.1,1.1-3.7c0-0.5-0.2-0.8-0.6-0.8c-0.2,0-0.5,0.1-0.9,0.3c-0.3,0.2-0.7,0.5-1.2,1c-0.4,0.4-0.9,0.8-1.4,1.4
		c-0.4,0.5-0.9,1-1.4,1.6l-1.4,1.6c-0.6,0.7-1,1.5-1.1,2.3c-0.2,1.4-0.4,2.7-0.5,3.8c0,0.9-0.1,2-0.1,3.5l-5.4,1.3
		c-0.2-2.2-0.3-3.8-0.3-4.9c0-2.6,0.3-5.1,0.9-7.4c0.6-2.3,1.6-5,2.9-7.9l6-1.1c-1.3,3.4-2.1,6-2.5,8c2.7-3,4.8-5,6.4-6.2
		c1.6-1.1,3-1.7,4.2-1.7c0.8,0,1.5,0.3,2.1,0.9s0.8,1.4,0.8,2.4c0,1.6-0.7,4.1-2.1,7.7c-1,2.5-1.4,4.1-1.4,4.8c0,1,0.4,1.5,1.2,1.5
		c1.2,0,3.1-1.6,5.8-4.7L239.2,34L239.2,34z"/>
	<path class="st1" d="M265.2,34c-2.6,2.5-4.5,4.1-5.6,4.8s-2.2,1.1-3.2,1.1c-2.6,0-3.8-2.3-3.6-6.8c-1.6,2.3-3.1,4-4.5,5.2
		c-1.4,1.1-2.8,1.7-4.3,1.7c-1.4,0-2.6-0.7-3.6-2s-1.5-3-1.5-4.9c0-2.4,0.7-4.8,2-7s3.1-4,5.2-5.4s4-2.1,5.6-2.1
		c2,0,3.5,0.9,4.3,2.8l5-2.8h1.4l-2.2,7.2c-1.1,3.6-1.7,6.1-1.7,7.4c0,1.4,0.5,2.1,1.5,2.1c0.6,0,1.3-0.3,2.1-1
		c0.8-0.7,1.8-1.7,3.2-3.1L265.2,34L265.2,34z M247.3,35.3c1.6,0,3.2-1.4,4.6-4.2c1.4-2.8,2.2-5.3,2.2-7.7c0-0.9-0.2-1.6-0.6-2.1
		c-0.4-0.5-1-0.8-1.6-0.8c-1.6,0-3.2,1.4-4.6,4.2c-1.5,2.8-2.2,5.3-2.2,7.6c0,0.9,0.2,1.6,0.6,2.1C246.1,35.1,246.7,35.3,247.3,35.3
		z"/>
	<path class="st1" d="M289.2,34c-2.1,2.2-4.5,3.8-7.4,4.8c-1.4,4.2-3.1,7.5-5.1,9.7c-2.1,2.3-4.3,3.4-6.6,3.4
		c-1.3,0-2.3-0.4-3.1-1.2c-0.8-0.8-1.2-1.8-1.2-3.1c0-1.7,0.8-3.3,2.3-4.7c1.6-1.4,4.2-2.7,7.9-4l1-4.8c-1.6,1.8-2.9,3-4.1,3.9
		c-1.1,0.8-2.3,1.2-3.4,1.2c-1.4,0-2.5-0.6-3.3-1.9c-0.9-1.3-1.3-2.9-1.3-5c0-3.3,1.3-6.4,3.8-9.3s5.2-4.4,8.1-4.4
		c1.6,0,3,0.7,4.2,2c0.7-0.3,1.7-0.7,2.9-1.2l1.7-0.8h0.6c-0.6,1.9-1.1,3.8-1.5,5.6l-2.3,12.3c2.2-0.8,4.5-2.6,6.8-5.3L289.2,34
		L289.2,34z M275.5,41.1c-5.3,1.9-7.9,4.1-7.9,6.5c0,0.7,0.2,1.3,0.7,1.8c0.4,0.5,1,0.7,1.7,0.7c1.2,0,2.2-0.7,3.1-2.2
		C273.9,46.4,274.7,44.1,275.5,41.1z M273.4,34.8c1.2,0,2.2-0.7,3.1-2.1c0.9-1.4,1.6-3.1,2.1-5.2s0.7-3.6,0.7-4.4s-0.2-1.4-0.6-1.9
		s-0.9-0.7-1.4-0.7c-1.7,0-3.2,1.2-4.5,3.5s-1.9,4.7-1.9,7.1c0,1.1,0.2,2,0.7,2.7C272.1,34.5,272.7,34.8,273.4,34.8z"/>
	<path class="st1" d="M307.4,34c-2.1,2-3.9,3.5-5.6,4.5c-1.6,1-3.5,1.5-5.4,1.5c-2.2,0-4-0.7-5.4-2.1c-1.4-1.4-2-3.3-2-5.6
		c0-3.5,1.2-6.6,3.6-9.4s5-4.2,8-4.2c1.5,0,2.7,0.4,3.6,1.2c0.9,0.8,1.4,1.8,1.4,3.1c0,3.4-3.6,6.1-10.7,8.2
		c0.7,3.2,2.4,4.8,5.1,4.8c1.1,0,2.1-0.3,3.1-0.9c1-0.6,2.4-1.9,4.4-3.8V34H307.4z M294.6,29.5c4.2-1.2,6.3-3.3,6.3-6.5
		c0-1.6-0.6-2.3-1.7-2.3s-2.1,0.8-3.1,2.5C295.1,24.7,294.6,26.9,294.6,29.5z"/>
	<path class="st1" d="M343.4,34c-2,2-3.8,3.5-5.2,4.5c-1.4,1-2.9,1.5-4.2,1.5c-1.1,0-1.9-0.4-2.6-1.1c-0.6-0.7-0.9-1.7-0.9-3
		c0-1.8,0.4-4,1.3-6.7s1.3-4.3,1.3-4.9c0-0.5-0.3-0.8-0.8-0.8c-0.2,0-0.4,0.1-0.6,0.2s-0.5,0.3-0.8,0.5s-0.6,0.5-1,0.8
		s-0.7,0.7-1.1,1.1s-0.8,0.9-1.3,1.4c-0.7,0.8-1.1,1.6-1.3,2.1l-0.8,3.5l-1.5,5.8l-6.2,1.1l2.4-10.1c0.2-0.7,0.4-1.8,0.6-3.2
		s0.4-2.3,0.4-2.5c0-0.6-0.2-0.8-0.6-0.8c-0.1,0-0.3,0.1-0.5,0.2s-0.5,0.3-0.8,0.5c-0.4,0.3-0.7,0.6-1.1,0.9
		c-0.4,0.4-0.9,0.8-1.4,1.3s-1.1,1.1-1.7,1.8c-0.8,0.9-1.3,1.9-1.5,3.1c-0.3,1.4-0.4,2.7-0.5,3.8s-0.2,2.3-0.2,3.7l-5.4,1.3
		c-0.1-1.9-0.2-3.4-0.2-4.7c0-3,0.3-5.6,0.9-7.8s1.6-4.8,3-7.7l5.9-1.1c-1.1,2.7-1.9,5.2-2.5,7.7c4.4-5.1,7.7-7.6,10.1-7.6
		c0.8,0,1.5,0.3,2.1,1c0.5,0.7,0.8,1.6,0.8,2.7c0,0.5-0.1,1.5-0.2,2.9c2.8-2.8,4.7-4.5,5.9-5.4c1.2-0.8,2.3-1.3,3.3-1.3
		c0.9,0,1.6,0.4,2.2,1.1s0.9,1.6,0.9,2.7c0,1.7-0.5,4-1.4,6.7s-1.4,4.5-1.4,5.4s0.3,1.4,1,1.4c0.4,0,1-0.3,1.8-0.8
		c0.8-0.6,2.1-1.9,4-3.9V34H343.4z"/>
	<path class="st1" d="M361.6,34c-2.1,2-3.9,3.5-5.6,4.5c-1.6,1-3.5,1.5-5.4,1.5c-2.2,0-4-0.7-5.4-2.1c-1.4-1.4-2-3.3-2-5.6
		c0-3.5,1.2-6.6,3.6-9.4s5-4.2,8-4.2c1.5,0,2.7,0.4,3.6,1.2c0.9,0.8,1.4,1.8,1.4,3.1c0,3.4-3.6,6.1-10.7,8.2
		c0.7,3.2,2.4,4.8,5.1,4.8c1.1,0,2.1-0.3,3.1-0.9c1-0.6,2.4-1.9,4.4-3.8V34H361.6z M348.8,29.5c4.2-1.2,6.3-3.3,6.3-6.5
		c0-1.6-0.6-2.3-1.7-2.3s-2.1,0.8-3.1,2.5C349.3,24.7,348.8,26.9,348.8,29.5z"/>
	<path class="st1" d="M385.6,34c-3.8,4-7,6-9.7,6c-1.1,0-2-0.4-2.6-1.1c-0.7-0.8-1-1.8-1-3.1c0-1.7,0.7-4.4,2.1-8
		c0.8-1.9,1.1-3.1,1.1-3.7c0-0.5-0.2-0.8-0.6-0.8c-0.2,0-0.5,0.1-0.9,0.3c-0.3,0.2-0.7,0.5-1.2,1c-0.4,0.4-0.9,0.8-1.4,1.4
		c-0.4,0.5-0.9,1-1.4,1.6l-1.4,1.6c-0.6,0.7-1,1.5-1.1,2.3c-0.2,1.4-0.4,2.7-0.5,3.8c0,0.9-0.1,2-0.1,3.5l-5.4,1.3
		c-0.2-2.2-0.3-3.8-0.3-4.9c0-2.6,0.3-5.1,0.9-7.4s1.6-5,2.9-7.9l6-1.1c-1.3,3.4-2.1,6-2.5,8c2.7-3,4.8-5,6.4-6.2
		c1.6-1.1,3-1.7,4.2-1.7c0.8,0,1.5,0.3,2.1,0.9s0.8,1.4,0.8,2.4c0,1.6-0.7,4.1-2.1,7.7c-1,2.5-1.4,4.1-1.4,4.8c0,1,0.4,1.5,1.2,1.5
		c1.2,0,3.1-1.6,5.8-4.7V34H385.6z"/>
	<path class="st1" d="M399.6,34c-2.1,2-3.8,3.5-5.3,4.5S391.4,40,390,40s-2.5-0.6-3.4-1.8s-1.3-2.7-1.3-4.7c0-1.7,0.4-3.9,1.3-6.7
		l1-3.7l-1.9,0.1l0.8-3.8l2.3-0.1l2.3-7.6l6.5-1.3l-2.5,8.5l3.4-0.2l-0.8,3.8l-3.8,0.3l-1.6,5.5c-0.6,1.9-0.8,3.4-0.8,4.5
		c0,0.8,0.2,1.4,0.6,1.9s0.9,0.7,1.5,0.7c0.8,0,1.7-0.3,2.5-0.8s2-1.6,3.6-3.3V34H399.6z"/>
</g>
</svg>
